<?xml version="1.0" standalone="no"?>
<!DOCTYPE svg PUBLIC "-//W3C//DTD SVG 20010904//EN"
 "http://www.w3.org/TR/2001/REC-SVG-20010904/DTD/svg10.dtd">
<svg version="1.0" xmlns="http://www.w3.org/2000/svg"
 width="212.000000pt" height="212.000000pt" viewBox="0 0 212.000000 212.000000"
 preserveAspectRatio="xMidYMid meet">
<metadata>
Created by potrace 1.14, written by Peter Selinger 2001-2017
</metadata>
<g transform="translate(0.000000,212.000000) scale(0.100000,-0.100000)"
fill="#000000" stroke="none">
<path d="M953 1853 c-28 -87 -79 -246 -113 -353 -34 -107 -66 -199 -70 -203
-4 -5 -177 -9 -384 -9 -207 0 -376 -1 -376 -4 0 -2 89 -70 197 -150 205 -152
321 -238 338 -252 6 -4 24 -18 42 -30 18 -13 30 -28 28 -35 -2 -7 -38 -120
-81 -252 -135 -420 -143 -449 -139 -453 3 -4 73 44 120 81 9 7 84 61 140 101
11 8 95 69 187 135 l168 121 266 -193 c324 -234 344 -248 344 -241 0 3 -108
114 -239 247 -132 133 -268 273 -304 310 -59 62 -67 67 -87 57 -18 -10 -257
-180 -297 -212 -6 -5 15 74 48 174 32 101 59 188 59 194 0 6 -70 61 -156 122
-92 66 -149 112 -138 113 11 1 97 3 193 5 96 2 178 7 182 11 4 5 33 88 64 186
32 98 61 175 65 170 4 -4 33 -88 65 -185 31 -98 62 -178 69 -179 16 0 718 -1
814 0 l82 1 0 65 0 65 -67 1 c-38 0 -95 2 -128 4 -33 1 -145 6 -250 9 -259 9
-338 15 -346 24 -4 4 -36 99 -72 212 -146 454 -161 500 -167 500 -3 0 -28 -71
-57 -157z"/>
</g>
</svg>
