<?xml version="1.0" encoding="utf-8"?>
<!-- Generator: Adobe Illustrator 24.0.1, SVG Export Plug-In . SVG Version: 6.00 Build 0)  -->
<svg version="1.1" xmlns="http://www.w3.org/2000/svg" xmlns:xlink="http://www.w3.org/1999/xlink" x="0px" y="0px"
	 viewBox="0 0 200 200" style="enable-background:new 0 0 200 200;" xml:space="preserve">
<style type="text/css">
	.st0{fill:#F9F9FA;}
</style>
<g id="Layer_1">
</g>
<g id="Layer_2">
	<g>
		<polygon class="st0" points="100.97,18.16 29.92,86.89 37.66,94.9 100.96,33.67 164.04,94.89 171.79,86.89 		"/>
		<path class="st0" d="M49.34,88.11v87.48h20.54v-26.68h0.03c0-0.2-0.03-0.39-0.03-0.59c0-17.81,14.44-32.26,32.25-32.26
			s32.26,14.44,32.26,32.26c0,0.19-0.03,0.39-0.03,0.59h0.03v26.68h18.22V88.11l-51.63-48.96L49.34,88.11z M112.91,90.93
			c0-2.91,2.36-5.26,5.26-5.26c2.91,0,5.27,2.36,5.27,5.26c0,1.65-0.78,3.11-1.97,4.08c1.19,0.97,1.97,2.42,1.97,4.08
			c0,2.91-2.35,5.26-5.27,5.26c-2.9,0-5.26-2.36-5.26-5.26c0-0.15,0.03-0.29,0.04-0.42h-8.53h-4.59H91.3
			c0.01,0.14,0.05,0.27,0.05,0.42c0,2.91-2.36,5.26-5.27,5.26s-5.27-2.36-5.27-5.26c0-1.65,0.78-3.11,1.97-4.08
			c-1.19-0.97-1.97-2.42-1.97-4.08c0-2.91,2.36-5.26,5.27-5.26s5.27,2.36,5.27,5.26c0,0.4-0.06,0.79-0.14,1.17h8.63h4.59h8.63
			C112.97,91.72,112.91,91.34,112.91,90.93z"/>
	</g>
</g>
</svg>
