<?xml version="1.0" encoding="utf-8"?>
<!-- Generator: Adobe Illustrator 24.0.1, SVG Export Plug-In . SVG Version: 6.00 Build 0)  -->
<svg version="1.1" xmlns="http://www.w3.org/2000/svg" xmlns:xlink="http://www.w3.org/1999/xlink" x="0px" y="0px"
	 viewBox="0 0 200 200" style="enable-background:new 0 0 200 200;" xml:space="preserve">
<style type="text/css">
	.st0{fill:#FDFEFE;}
</style>
<g id="Layer_1">
</g>
<g id="Layer_2">
	<path class="st0" d="M173.58,137.12c-0.23-5.53-0.86-10.03-2.22-11.56c-3.64-4.07-15.51-2.98-20.04-2.39
		c6.61-7.21,10.68-16.78,10.68-27.33c0-16-9.31-29.8-22.79-36.36c0.07-2.25,0.6-7.01,3.79-7.62c4.2-0.8,22.37-0.2,21.57-9.19
		c-0.04-0.42-0.11-0.79-0.19-1.17c0.46-0.45,0.75-1.07,0.75-1.76c0-1.37-1.11-2.48-2.48-2.48c-0.21,0-0.39,0.07-0.59,0.12
		c-3.23-2.72-8.48-2.05-9.48-3.9c-1.4-2.6,0.13-9.51-1.86-16.7c-2-7.19-9.42-10.38-17.46-10.38c-17.72,0-17.62,18.29-21.42,16.69
		c-14.18-2.99-26.16,14.78-28.16,18.98c-2,4.19-5.22,9.07-2.62,11.58c2.6,2.52,7.02,1.8,12.61,0.6c5.59-1.2,15.38-7.48,18.18-9.79
		c1.96,5.92,5.78,6.84,7.15,11.03c-15.12,0.94-27.96,10.15-34.08,23.19c-3.02,0-12.96,0-25.13,0c-4.94,0-8.67,1.2-11.48,3.01
		l-5.06-7.45c4.9-3.49,8.1-9.2,8.1-15.67c0-10.62-8.62-19.24-19.24-19.24c-10.62,0-19.24,8.62-19.24,19.24s8.62,19.24,19.24,19.24
		c1.85,0,3.63-0.28,5.32-0.76l6.26,9.22c-2.02,3.1-2.81,6.61-2.81,9.45c0,6.66-0.58,15.41-0.18,19.54
		c0.4,4.13-15.54,21.53-15.54,28.19c0,1.58-0.2,5.24-0.46,9.89c-7.54,1.16-13.34,7.61-13.34,15.48c0,7.47,5.22,13.69,12.21,15.29
		c0.02,0.39,0.04,0.79,0.06,1.2c0.01,0.23,0.01,0.48,0.02,0.7l0.02,0c0.19,3.33,0.47,6.7,0.88,6.98c1.53,1.07,14.7,0.31,16.08,0.31
		c1.38,0,1.69-4.14-0.76-5.97c-2.45-1.84-6.12-1.47-6.12-1.47s-1.12-1.62-1.1-2.44c5.91-2.25,10.16-7.9,10.16-14.6
		c0-6.22-3.65-11.55-8.89-14.1c0.65-4.36,1.3-7.3,1.63-7.54c0.91-0.67,12.12-1.59,25.03-16.84c0.03,1.01,0.17,20.17,0.84,21.1
		c0.24,0.34,2.28,1.75,4.76,3.4c-2.19,2.7-3.56,6.1-3.56,9.85c0,7.66,5.49,14.03,12.75,15.42c0.03,4.25,1.59,4.5,1.19,7.83
		c-0.4,3.33,5.67,3.2,6.53,0c0.85-3.2-0.13-5.86-0.13-5.86l-0.11-2.35c5.07-2.03,11.21-7.39,11.21-15.04
		c0-8.68-7.04-15.72-15.72-15.72c-0.97,0-1.92,0.12-2.85,0.29l-1.97-1.92c0,0,4.78-10.53,5.05-20.24c2.93,0.65,15.02-2,15.02-2
		s0.06,0.02,0.09,0.04c4.23,4.03,9.32,7.14,14.98,9.04c0,0.01,0.02,0.03,0.02,0.04c0.66,1.77,2.02,12.51,3.09,21.76
		c-5.69,2.37-9.7,7.97-9.7,14.51c0,7.18,4.84,13.16,11.41,15.04c0.01,0.31,0.03,0.6,0.04,0.9c0.16,3.36,0.42,6,0.86,6.31
		c1.33,0.93,12.78,0.27,13.98,0.27c1.2,0,1.46-3.6-0.66-5.2c-2.13-1.6-5.33-1.27-5.33-1.27s0.08-0.23,0.18-0.92
		c0.01-0.08,0.02-0.14,0.04-0.24c6.32-2.04,10.92-7.9,10.92-14.89c0-7.02-4.64-12.9-11-14.91c-0.23-5.22-0.54-11.29-0.97-18.37
		c0,0,0.51-0.41,1.37-0.96c5.51-0.18,10.74-1.46,15.47-3.64c8.58,0.14,20.15-0.85,22.36,0.37c0.47,0.26,0.8,1.94,1.04,4.45
		c-5.52,2.44-9.37,7.94-9.37,14.36c0,6.92,4.51,12.74,10.73,14.83c0.31,3.78,0.52,6.94,0.52,6.94s-0.43,5.76,4.66,5.46
		c4.79-1.5,4.13-10.6,4.13-10.6s0.05-0.59,0.14-1.64c6.49-1.93,11.26-7.88,11.26-15C183.82,145.06,179.54,139.35,173.58,137.12z"/>
</g>
</svg>
